<?xml version="1.0" standalone="no"?>
<!DOCTYPE svg PUBLIC "-//W3C//DTD SVG 20010904//EN"
 "http://www.w3.org/TR/2001/REC-SVG-20010904/DTD/svg10.dtd">
<svg version="1.0" xmlns="http://www.w3.org/2000/svg"
 width="967.000000pt" height="533.000000pt" viewBox="0 0 967.000000 533.000000"
 preserveAspectRatio="xMidYMid meet">

<g transform="translate(0.000000,533.000000) scale(0.100000,-0.100000)"
fill="#000000" stroke="none">
<path d="M534 5296 c-101 -23 -196 -79 -298 -175 -146 -139 -226 -308 -226
-478 0 -62 5 -80 39 -149 48 -94 145 -218 325 -414 473 -513 3931 -3836 4139
-3977 111 -76 403 -95 578 -38 106 35 384 293 1964 1820 2151 2078 2473 2402
2550 2560 34 69 48 154 42 255 -14 255 -192 477 -452 566 -106 36 -259 44
-369 20 -191 -43 -330 -168 -2211 -1981 -939 -905 -1737 -1658 -1772 -1672
-16 -6 -35 11 -283 241 -311 289 -736 694 -1400 1336 -581 562 -1259 1210
-1640 1570 -334 316 -464 432 -513 457 -117 59 -347 88 -473 59z"/>
</g>
</svg>
