<?xml version="1.0" encoding="UTF-8"?>
<!DOCTYPE svg PUBLIC "-//W3C//DTD SVG 1.1//EN" "http://www.w3.org/Graphics/SVG/1.1/DTD/svg11.dtd">
<svg xmlns="http://www.w3.org/2000/svg" version="1.1" width="967px" height="533px" style="shape-rendering:geometricPrecision; text-rendering:geometricPrecision; image-rendering:optimizeQuality; fill-rule:evenodd; clip-rule:evenodd" xmlns:xlink="http://www.w3.org/1999/xlink">
<g><path style="opacity:0.992" fill="#027c81" d="M -0.5,73.5 C -0.5,69.5 -0.5,65.5 -0.5,61.5C 6.49971,31.3287 24.833,11.4954 54.5,2C 72.5161,-0.497747 89.5161,2.50225 105.5,11C 143.135,45.6335 180.468,80.6335 217.5,116C 284.53,181.364 351.863,246.364 419.5,311C 440.366,330.868 461.533,350.368 483,369.5C 509.167,345.333 535.333,321.167 561.5,297C 654.925,205.905 749.258,115.905 844.5,27C 852.294,19.9385 860.628,13.6052 869.5,8C 895.728,-2.51318 920.061,0.820149 942.5,18C 964.823,38.7886 970.323,63.2886 959,91.5C 950.71,102.126 942.043,112.459 933,122.5C 811.079,242.757 688.246,361.923 564.5,480C 548.427,495.411 531.76,510.078 514.5,524C 504.645,528.42 494.312,530.254 483.5,529.5C 471.918,530.217 460.918,528.05 450.5,523C 422.534,498.035 394.867,472.702 367.5,447C 260.725,344.894 154.559,242.06 49,138.5C 37.0991,125.689 25.4324,112.689 14,99.5C 7.82376,91.4713 2.99042,82.8046 -0.5,73.5 Z"/></g>
</svg>
